<svg width="20" height="20" viewBox="0 0 20 20" fill="none" xmlns="http://www.w3.org/2000/svg">
<path fill-rule="evenodd" clip-rule="evenodd" d="M1 4.34613C1 1.72092 1.02811 0.84613 4.5 0.84613C7.97189 0.84613 8 1.72092 8 4.34613C8 6.97134 8.01107 7.84613 4.5 7.84613C0.988927 7.84613 1 6.97134 1 4.34613Z" stroke="#CCCCCC" stroke-width="1.5" stroke-linecap="round" stroke-linejoin="round"/>
<path fill-rule="evenodd" clip-rule="evenodd" d="M12 4.34613C12 1.72092 12.0281 0.84613 15.5 0.84613C18.9719 0.84613 19 1.72092 19 4.34613C19 6.97134 19.0111 7.84613 15.5 7.84613C11.9889 7.84613 12 6.97134 12 4.34613Z" stroke="#CCCCCC" stroke-width="1.5" stroke-linecap="round" stroke-linejoin="round"/>
<path fill-rule="evenodd" clip-rule="evenodd" d="M1 15.3461C1 12.7209 1.02811 11.8461 4.5 11.8461C7.97189 11.8461 8 12.7209 8 15.3461C8 17.9713 8.01107 18.8461 4.5 18.8461C0.988927 18.8461 1 17.9713 1 15.3461Z" stroke="#CCCCCC" stroke-width="1.5" stroke-linecap="round" stroke-linejoin="round"/>
<path fill-rule="evenodd" clip-rule="evenodd" d="M12 15.3461C12 12.7209 12.0281 11.8461 15.5 11.8461C18.9719 11.8461 19 12.7209 19 15.3461C19 17.9713 19.0111 18.8461 15.5 18.8461C11.9889 18.8461 12 17.9713 12 15.3461Z" stroke="#CCCCCC" stroke-width="1.5" stroke-linecap="round" stroke-linejoin="round"/>
</svg>
