<svg width="22" height="23" viewBox="0 0 22 23" fill="none" xmlns="http://www.w3.org/2000/svg">
<path d="M8.15722 20.6175V17.5508C8.1572 16.7708 8.79312 16.137 9.58101 16.1317H12.4671C13.2587 16.1317 13.9005 16.7671 13.9005 17.5508V17.5508V20.6271C13.9003 21.2893 14.4343 21.8306 15.103 21.8461H17.0271C18.9451 21.8461 20.5 20.3068 20.5 18.408V18.408V9.68397C20.4898 8.93696 20.1355 8.23548 19.538 7.77916L12.9577 2.53143C11.8049 1.6177 10.1662 1.6177 9.01342 2.53143L2.46203 7.78869C1.86226 8.24315 1.50739 8.9458 1.5 9.69349V18.408C1.5 20.3068 3.05488 21.8461 4.97291 21.8461H6.89696C7.58235 21.8461 8.13797 21.2961 8.13797 20.6175V20.6175" stroke="#E54660" stroke-width="2" stroke-linecap="round" stroke-linejoin="round"/>
</svg>
